<svg xmlns="http://www.w3.org/2000/svg" width="27.809" height="27.809" viewBox="0 0 27.809 27.809"><path d="M312.464,333.1h5.562a.463.463,0,0,0,.463-.463v-4.171a.464.464,0,0,0-.463-.464h-5.562a.464.464,0,0,0-.464.464v4.171A.463.463,0,0,0,312.464,333.1Zm.463-4.171h4.635v3.244h-4.635Z" transform="translate(-294.851 -309.924)" fill="#fff"/><path d="M94.339,328H88.8a.463.463,0,0,0-.463.464v4.171a.463.463,0,0,0,.463.463h5.542a.463.463,0,0,0,.463-.463v-4.171a.463.463,0,0,0-.463-.464Zm-.463,4.171H89.26v-3.244h4.615Z" transform="translate(-84.143 -309.924)" fill="#fff"/><path d="M42.418,41.027h-.927V33.1a2.321,2.321,0,0,0,1.854-2.271V29.9a.462.462,0,0,0-.156-.346h0l-4.016-3.57v-3.5a1.392,1.392,0,0,0-1.39-1.39h-3.05l-.2-2.356a.463.463,0,0,0-.462-.425H31.758V17.39a1.39,1.39,0,0,0-2.317-1.035,1.39,1.39,0,0,0-2.317,1.035v.927h-1.39a.463.463,0,0,0-.462.425l-.2,2.356h-3.05a1.392,1.392,0,0,0-1.39,1.39v3.5l-4.016,3.57h0a.462.462,0,0,0-.156.346v.927A2.321,2.321,0,0,0,18.317,33.1v7.926H17.39a1.39,1.39,0,0,0,0,2.781H42.418a1.39,1.39,0,0,0,0-2.781Zm0-10.2a1.39,1.39,0,0,1-2.781,0v-.463h2.781ZM21.275,26.66h.841L20.378,29.44H18.146ZM41.663,29.44H39.431L37.693,26.66h.841ZM36.6,26.66l1.738,2.781H35.875l-.348-2.781Zm-2.006,0,.348,2.781H32.222V26.66Zm-3.3,2.781H28.514V26.66h2.781Zm-3.708,0H24.868l.348-2.781h2.372Zm-3.653,0H21.471l1.738-2.781h1.072Zm-2.835.927h2.781v.463a1.39,1.39,0,0,1-2.781,0Zm3.708,0h2.781v.463a1.39,1.39,0,0,1-2.781,0Zm3.708,0h2.781v.463a1.39,1.39,0,0,1-2.781,0Zm3.708,0H35v.463a1.39,1.39,0,0,1-2.781,0Zm3.708,0H38.71v.463a1.39,1.39,0,0,1-2.781,0Zm-2.28-11.124.386,4.635H32.185L31.8,19.244Zm-3.281-2.317a.464.464,0,0,1,.463.463v.927H29.9V17.39A.464.464,0,0,1,30.368,16.927Zm-2.317.463a.463.463,0,1,1,.927,0v.927H28.05ZM26.16,19.244h.964v.927h.927v-.927h.927v.927H29.9v-.927h.964l.386,4.635H25.773Zm-4.6,3.244a.464.464,0,0,1,.463-.463H25l-.19,2.279a.463.463,0,0,0,.462.5h9.27A.463.463,0,0,0,35,24.3l-.19-2.279h2.972a.464.464,0,0,1,.463.463v3.244H21.562ZM17.39,30.831v-.463h2.781v.463a1.39,1.39,0,0,1-2.781,0ZM19.244,33.1a2.321,2.321,0,0,0,1.39-.882,2.315,2.315,0,0,0,3.708,0,2.315,2.315,0,0,0,3.708,0,2.315,2.315,0,0,0,3.708,0,2.315,2.315,0,0,0,3.708,0,2.315,2.315,0,0,0,3.708,0,2.321,2.321,0,0,0,1.39.882v7.926H32.222V34.539a.463.463,0,0,0-.463-.463H28.05a.463.463,0,0,0-.463.463v6.489H19.244Zm12.05,7.926H28.514V35h2.781Zm11.124,1.854H17.39a.463.463,0,0,1,0-.927H42.418a.463.463,0,0,1,0,.927Z" transform="translate(-16 -16)" fill="#fff"/></svg>