<svg xmlns="http://www.w3.org/2000/svg" width="27.81" height="32.386" viewBox="0 0 27.81 32.386"><path d="M188.351,154.914a.506.506,0,0,0-.182-.006,1.208,1.208,0,0,1-1.068-1.2.531.531,0,0,0-1.062,0,2.273,2.273,0,0,0,1.671,2.188v.531a.531.531,0,1,0,1.062,0v-.5a2.268,2.268,0,0,0-.465-4.489,1.206,1.206,0,1,1,1.206-1.206.531.531,0,1,0,1.062,0,2.273,2.273,0,0,0-1.8-2.221v-.484a.531.531,0,1,0-1.062,0v.516a2.268,2.268,0,0,0,.6,4.457,1.205,1.205,0,0,1,.044,2.41Zm0,0" transform="translate(-174.08 -137.239)" fill="#fff"/><path d="M104.2,114.2a7.35,7.35,0,1,0,7.342-7.7A7.529,7.529,0,0,0,104.2,114.2Zm7.342-6.641a6.649,6.649,0,1,1-6.329,6.641A6.491,6.491,0,0,1,111.537,107.555Zm0,0" transform="translate(-97.3 -99.421)" fill="#fff"/><path d="M24.649,328.473l-4.056,1.966a3.3,3.3,0,0,0-2.816-1.783l-3.744-.106a3.876,3.876,0,0,1-1.7-.451l-.381-.2a6.569,6.569,0,0,0-6.225.007l.024-.886a.526.526,0,0,0-.5-.546l-4.106-.116a.524.524,0,0,0-.532.516L.36,336.117a.526.526,0,0,0,.5.546l4.106.116h.014a.524.524,0,0,0,.518-.517l.012-.442,1.067-.586a1.788,1.788,0,0,1,1.365-.153l6.369,1.834.034.009a6.65,6.65,0,0,0,1.4.148,6.761,6.761,0,0,0,2.886-.646.479.479,0,0,0,.064-.036l9.235-6.129a.54.54,0,0,0,.17-.708A2.582,2.582,0,0,0,24.649,328.473ZM1.41,335.615l.219-8.182,3.07.087L4.48,335.7Zm16.758-.139a5.734,5.734,0,0,1-3.59.411l-6.352-1.829a2.8,2.8,0,0,0-2.134.239l-.545.3.146-5.44a5.569,5.569,0,0,1,5.782-.316l.381.2a4.9,4.9,0,0,0,2.149.57l3.744.106a2.288,2.288,0,0,1,2.158,1.857l-5.577-.158a.531.531,0,0,0-.029,1.062l6.155.174h.014a.524.524,0,0,0,.517-.517,3.457,3.457,0,0,0-.05-.689l4.16-2.017.012-.006a1.551,1.551,0,0,1,1.789.257Zm0,0" transform="translate(-0.36 -304.685)" fill="#fff"/><path d="M213.266,5.578V.531a.531.531,0,0,0-1.062,0V5.578a.531.531,0,0,0,1.062,0Zm0,0" transform="translate(-198.506)" fill="#fff"/><path d="M273.266,42.922V40.531a.531.531,0,1,0-1.062,0v2.391a.531.531,0,0,0,1.062,0Zm0,0" transform="translate(-254.627 -37.344)" fill="#fff"/><path d="M153.266,42.922V40.531a.531.531,0,1,0-1.062,0v2.391a.531.531,0,1,0,1.062,0Zm0,0" transform="translate(-142.386 -37.344)" fill="#fff"/></svg>