<svg xmlns="http://www.w3.org/2000/svg" width="26.649" height="24.046" viewBox="0 0 26.649 24.046">
  <g id="_007-cardiogram" data-name="007-cardiogram" transform="translate(0 -25.006)">
    <path id="Caminho_444" data-name="Caminho 444" d="M13.317,27.217A7.813,7.813,0,0,0,1.3,37.082H7.046l1.022-1.7A.781.781,0,0,1,9.4,35.362l2.156,3.387,3.142-6.633a.781.781,0,0,1,1.393-.036l2.693,5h6.552c4.854-7.586-4.739-16.228-12.015-9.865Z" transform="translate(0 0)" fill="#fff"/>
    <path id="Caminho_445" data-name="Caminho 445" d="M63.835,205.316l-2.183-4.053-3.086,6.516a.781.781,0,0,1-1.364.085l-2.236-3.514-.6,1a.781.781,0,0,1-.669.379H48.746c.155.162-.672-.663,10.229,10.182a.781.781,0,0,0,1.1,0c10.734-10.678,10.075-10.02,10.229-10.182H64.522A.78.78,0,0,1,63.835,205.316Z" transform="translate(-46.209 -167.084)" fill="#fff"/>
  </g>
</svg>
