<svg xmlns="http://www.w3.org/2000/svg" width="28" height="28" viewBox="0 0 28 28">
  <g id="_004-linkedin" data-name="004-linkedin" transform="translate(0 0.001)">
    <circle id="Elipse_41" data-name="Elipse 41" cx="14" cy="14" r="14" transform="translate(0 -0.001)" fill="#007ab9"/>
    <g id="Grupo_107" data-name="Grupo 107" transform="translate(6.755 5.981)">
      <path id="Caminho_438" data-name="Caminho 438" d="M42.678,33.113v5.772H39.331V33.5c0-1.352-.483-2.276-1.695-2.276a1.83,1.83,0,0,0-1.716,1.224,2.29,2.29,0,0,0-.111.816v5.621H32.463s.045-9.121,0-10.065h3.347v1.426c-.007.011-.016.022-.022.033h.022v-.033a3.323,3.323,0,0,1,3.016-1.663c2.2,0,3.852,1.438,3.852,4.529ZM28.962,23.969a1.744,1.744,0,1,0-.044,3.478h.022a1.745,1.745,0,1,0,.022-3.478ZM27.267,38.885h3.345V28.821H27.267Z" transform="translate(-27.068 -23.969)" fill="#f1f2f2"/>
    </g>
  </g>
</svg>
