<svg xmlns="http://www.w3.org/2000/svg" xmlns:xlink="http://www.w3.org/1999/xlink" width="975" height="771" viewBox="0 0 975 771">
  <defs>
    <clipPath id="clip-path">
      <rect width="12" height="65" fill="none"/>
    </clipPath>
  </defs>
  <g id="Grupo_206" data-name="Grupo 206" transform="translate(-453 -1050)">
    <text id="SOCIAL" transform="translate(521 1087)" fill="#fff" font-size="35" font-family="OpenSans-Bold, Open Sans" font-weight="700"><tspan x="-62.472" y="0">SOCIAL</tspan></text>
    <rect id="Retângulo_97" data-name="Retângulo 97" width="975" height="711" rx="12" transform="translate(453 1110)" fill="#2b2c38"/>
    <text id="Popularidade" transform="translate(538 1153)" fill="#fff" font-size="18" font-family="OpenSans-Bold, Open Sans" font-weight="700"><tspan x="-59.994" y="0">Popularidade</tspan></text>
    <text id="Engajamento" transform="translate(825 1153)" fill="#fff" font-size="18" font-family="OpenSans-Bold, Open Sans" font-weight="700"><tspan x="-59.208" y="0">Engajamento</tspan></text>
    <text id="Comparativos" transform="translate(1157 1153)" fill="#fff" font-size="18" font-family="OpenSans-Bold, Open Sans" font-weight="700"><tspan x="-62.438" y="0">Comparativos</tspan></text>
    <text id="Últimos_3_meses" data-name="Últimos 3 meses" transform="translate(687 1140)" fill="#2a2b34" font-size="11" font-family="OpenSans, Open Sans"><tspan x="-42.327" y="0">Últimos 3 meses</tspan></text>
    <g id="Grupo_165" data-name="Grupo 165" transform="translate(0 407)">
      <g id="Grupo_164" data-name="Grupo 164">
        <g id="Grupo_135" data-name="Grupo 135" transform="translate(-15 470)">
          <g id="Repetição_de_grade_18" data-name="Repetição de grade 18" transform="translate(495 335)" clip-path="url(#clip-path)">
            <g transform="translate(-495 -335)">
              <circle id="Elipse_10" data-name="Elipse 10" cx="6" cy="6" r="6" transform="translate(495 335)" fill="#3b5998"/>
            </g>
            <g transform="translate(-495 -311)">
              <circle id="Elipse_10-2" data-name="Elipse 10" cx="6" cy="6" r="6" transform="translate(495 335)" fill="#3b5998"/>
            </g>
            <g transform="translate(-495 -287)">
              <circle id="Elipse_10-3" data-name="Elipse 10" cx="6" cy="6" r="6" transform="translate(495 335)" fill="#3b5998"/>
            </g>
          </g>
          <g id="Grupo_112" data-name="Grupo 112">
            <text id="_100mil_curtidas_na_página" data-name="+ 100mil curtidas na página" transform="translate(605 345)" fill="#fff" font-size="14" font-family="OpenSans, Open Sans"><tspan x="-89.752" y="0">+ 100mil curtidas na página</tspan></text>
            <text id="_3.4MI_visualizações_de_conteúdo" data-name="3.4MI visualizações de conteúdo" transform="translate(625 394)" fill="#fff" font-size="14" font-family="OpenSans, Open Sans"><tspan x="-105.222" y="0">3.4MI visualizações de conteúdo</tspan></text>
            <text id="_324mil_comentários" data-name="+324mil comentários" transform="translate(586 368)" fill="#fff" font-size="14" font-family="OpenSans, Open Sans"><tspan x="-68.735" y="0">+324mil comentários</tspan></text>
          </g>
        </g>
        <g id="Grupo_137" data-name="Grupo 137" transform="translate(273 470)">
          <g id="Repetição_de_grade_18-2" data-name="Repetição de grade 18" transform="translate(495 335)" clip-path="url(#clip-path)">
            <g transform="translate(-495 -335)">
              <circle id="Elipse_10-4" data-name="Elipse 10" cx="6" cy="6" r="6" transform="translate(495 335)" fill="#3b5998"/>
            </g>
            <g transform="translate(-495 -311)">
              <circle id="Elipse_10-5" data-name="Elipse 10" cx="6" cy="6" r="6" transform="translate(495 335)" fill="#3b5998"/>
            </g>
            <g transform="translate(-495 -287)">
              <circle id="Elipse_10-6" data-name="Elipse 10" cx="6" cy="6" r="6" transform="translate(495 335)" fill="#3b5998"/>
            </g>
          </g>
          <g id="Grupo_112-2" data-name="Grupo 112">
            <text id="_17_de_engajamento" data-name="+17% de engajamento" transform="translate(590 345)" fill="#fff" font-size="14" font-family="OpenSans, Open Sans"><tspan x="-72.673" y="0">+17% de engajamento</tspan></text>
            <text id="_12_de_engajamento_em_anúncios" data-name="+12% de engajamento em anúncios" transform="translate(632 394)" fill="#fff" font-size="14" font-family="OpenSans, Open Sans"><tspan x="-116.201" y="0">+12% de engajamento em anúncios</tspan></text>
            <text id="_20_de_comentários" data-name="+20% de comentários" transform="translate(586 368)" fill="#fff" font-size="14" font-family="OpenSans, Open Sans"><tspan x="-70.479" y="0">+20% de comentários</tspan></text>
          </g>
        </g>
        <g id="Grupo_136" data-name="Grupo 136" transform="translate(-15 466)">
          <text id="Facebook_1_" data-name="Facebook (#1)" transform="translate(518 324)" fill="#fff" font-size="16" font-family="OpenSans, Open Sans"><tspan x="0" y="0">Facebook (#1)</tspan></text>
          <g id="_001-facebook" data-name="001-facebook" transform="translate(492.449 309.449)">
            <circle id="Elipse_39" data-name="Elipse 39" cx="8" cy="8" r="8" transform="translate(0.551 0.551)" fill="#3b5998"/>
            <path id="Caminho_433" data-name="Caminho 433" d="M42.691,27.266H41.183v5.524H38.9V27.266H37.812V25.324H38.9V24.068a2.142,2.142,0,0,1,2.3-2.305l1.692.007v1.884H41.668a.465.465,0,0,0-.485.529v1.143H42.89Z" transform="translate(-32.015 -18.383)" fill="#fff"/>
          </g>
        </g>
        <g id="Grupo_138" data-name="Grupo 138" transform="translate(-15 466)">
          <text id="Facebook_2_" data-name="Facebook (#2)" transform="translate(805 324)" fill="#fff" font-size="16" font-family="OpenSans, Open Sans"><tspan x="0" y="0">Facebook (#2)</tspan></text>
          <g id="_001-facebook-2" data-name="001-facebook" transform="translate(780.449 309.449)">
            <circle id="Elipse_39-2" data-name="Elipse 39" cx="8" cy="8" r="8" transform="translate(0.551 0.551)" fill="#3b5998"/>
            <path id="Caminho_433-2" data-name="Caminho 433" d="M42.691,27.266H41.183v5.524H38.9V27.266H37.812V25.324H38.9V24.068a2.142,2.142,0,0,1,2.3-2.305l1.692.007v1.884H41.668a.465.465,0,0,0-.485.529v1.143H42.89Z" transform="translate(-32.015 -18.383)" fill="#fff"/>
          </g>
        </g>
      </g>
    </g>
    <g id="Grupo_163" data-name="Grupo 163" transform="translate(0 407)">
      <g id="Grupo_141" data-name="Grupo 141" transform="translate(-15 601)">
        <g id="Repetição_de_grade_18-3" data-name="Repetição de grade 18" transform="translate(495 335)" clip-path="url(#clip-path)">
          <g transform="translate(-495 -335)">
            <circle id="Elipse_10-7" data-name="Elipse 10" cx="6" cy="6" r="6" transform="translate(495 335)" fill="#55acee"/>
          </g>
          <g transform="translate(-495 -311)">
            <circle id="Elipse_10-8" data-name="Elipse 10" cx="6" cy="6" r="6" transform="translate(495 335)" fill="#55acee"/>
          </g>
          <g transform="translate(-495 -287)">
            <circle id="Elipse_10-9" data-name="Elipse 10" cx="6" cy="6" r="6" transform="translate(495 335)" fill="#55acee"/>
          </g>
        </g>
        <g id="Grupo_112-3" data-name="Grupo 112">
          <text id="_74mil_curtidas_seguidores" data-name="+ 74mil curtidas seguidores" transform="translate(605 345)" fill="#fff" font-size="14" font-family="OpenSans, Open Sans"><tspan x="-89.435" y="0">+ 74mil curtidas seguidores</tspan></text>
          <text id="_39mil_citações_e_interações" data-name="+39mil citações e interações" transform="translate(608 394)" fill="#fff" font-size="14" font-family="OpenSans, Open Sans"><tspan x="-91.639" y="0">+39mil citações e interações</tspan></text>
          <text id="_124mil_retweets" data-name="+124mil retweets" transform="translate(572 368)" fill="#fff" font-size="14" font-family="OpenSans, Open Sans"><tspan x="-56.106" y="0">+124mil retweets</tspan></text>
        </g>
      </g>
      <g id="Grupo_142" data-name="Grupo 142" transform="translate(273 601)">
        <g id="Repetição_de_grade_18-4" data-name="Repetição de grade 18" transform="translate(495 335)" clip-path="url(#clip-path)">
          <g transform="translate(-495 -335)">
            <circle id="Elipse_10-10" data-name="Elipse 10" cx="6" cy="6" r="6" transform="translate(495 335)" fill="#55acee"/>
          </g>
          <g transform="translate(-495 -311)">
            <circle id="Elipse_10-11" data-name="Elipse 10" cx="6" cy="6" r="6" transform="translate(495 335)" fill="#55acee"/>
          </g>
          <g transform="translate(-495 -287)">
            <circle id="Elipse_10-12" data-name="Elipse 10" cx="6" cy="6" r="6" transform="translate(495 335)" fill="#55acee"/>
          </g>
        </g>
        <g id="Grupo_112-4" data-name="Grupo 112">
          <text id="_74mil_curtidas_seguidores-2" data-name="+ 74mil curtidas seguidores" transform="translate(605 345)" fill="#fff" font-size="14" font-family="OpenSans, Open Sans"><tspan x="-89.435" y="0">+ 74mil curtidas seguidores</tspan></text>
          <text id="_39mil_citações_e_interações-2" data-name="+39mil citações e interações" transform="translate(608 394)" fill="#fff" font-size="14" font-family="OpenSans, Open Sans"><tspan x="-91.639" y="0">+39mil citações e interações</tspan></text>
          <text id="_124mil_retweets-2" data-name="+124mil retweets" transform="translate(572 368)" fill="#fff" font-size="14" font-family="OpenSans, Open Sans"><tspan x="-56.106" y="0">+124mil retweets</tspan></text>
        </g>
      </g>
      <g id="Grupo_139" data-name="Grupo 139" transform="translate(-15 466)">
        <text id="Twitter_4_" data-name="Twitter (#4)" transform="translate(518 452)" fill="#fff" font-size="16" font-family="OpenSans, Open Sans"><tspan x="0" y="0">Twitter (#4)</tspan></text>
        <g id="Grupo_114" data-name="Grupo 114" transform="translate(2436 870)">
          <g id="_002-twitter" data-name="002-twitter" transform="translate(-1942 -432)">
            <circle id="Elipse_40" data-name="Elipse 40" cx="8" cy="8" r="8" transform="translate(0)" fill="#55acee"/>
            <g id="Grupo_106" data-name="Grupo 106" transform="translate(3.58 4.853)">
              <path id="Caminho_434" data-name="Caminho 434" d="M34.424,34.925a3.815,3.815,0,0,1-1.1.3,1.917,1.917,0,0,0,.841-1.058,3.828,3.828,0,0,1-1.214.464,1.914,1.914,0,0,0-3.259,1.744,5.428,5.428,0,0,1-3.942-2,1.914,1.914,0,0,0,.592,2.553,1.9,1.9,0,0,1-.866-.239c0,.008,0,.016,0,.024a1.913,1.913,0,0,0,1.534,1.875,1.92,1.92,0,0,1-.863.033,1.914,1.914,0,0,0,1.786,1.328,3.86,3.86,0,0,1-2.831.792,5.438,5.438,0,0,0,8.372-4.582c0-.083,0-.165-.006-.247a3.878,3.878,0,0,0,.954-.99Z" transform="translate(-25.103 -34.028)" fill="#f1f2f2"/>
            </g>
          </g>
        </g>
      </g>
      <g id="Grupo_140" data-name="Grupo 140" transform="translate(-15 466)">
        <text id="Twitter_1_" data-name="Twitter (#1)" transform="translate(806 452)" fill="#fff" font-size="16" font-family="OpenSans, Open Sans"><tspan x="0" y="0">Twitter (#1)</tspan></text>
        <g id="Grupo_118" data-name="Grupo 118" transform="translate(2724 870)">
          <g id="_002-twitter-2" data-name="002-twitter" transform="translate(-1942 -432)">
            <circle id="Elipse_40-2" data-name="Elipse 40" cx="8" cy="8" r="8" transform="translate(0)" fill="#55acee"/>
            <g id="Grupo_106-2" data-name="Grupo 106" transform="translate(3.58 4.853)">
              <path id="Caminho_434-2" data-name="Caminho 434" d="M34.424,34.925a3.815,3.815,0,0,1-1.1.3,1.917,1.917,0,0,0,.841-1.058,3.828,3.828,0,0,1-1.214.464,1.914,1.914,0,0,0-3.259,1.744,5.428,5.428,0,0,1-3.942-2,1.914,1.914,0,0,0,.592,2.553,1.9,1.9,0,0,1-.866-.239c0,.008,0,.016,0,.024a1.913,1.913,0,0,0,1.534,1.875,1.92,1.92,0,0,1-.863.033,1.914,1.914,0,0,0,1.786,1.328,3.86,3.86,0,0,1-2.831.792,5.438,5.438,0,0,0,8.372-4.582c0-.083,0-.165-.006-.247a3.878,3.878,0,0,0,.954-.99Z" transform="translate(-25.103 -34.028)" fill="#f1f2f2"/>
            </g>
          </g>
        </g>
      </g>
    </g>
    <g id="Grupo_143" data-name="Grupo 143" transform="translate(-15 853)">
      <g id="Grupo_124" data-name="Grupo 124" transform="translate(1113 327)">
        <rect id="Retângulo_93" data-name="Retângulo 93" width="37" height="102" transform="translate(0 0)" fill="#323341"/>
        <rect id="Retângulo_95" data-name="Retângulo 95" width="32" height="54" transform="translate(2 48)" fill="#5003e2"/>
      </g>
      <rect id="Retângulo_93-2" data-name="Retângulo 93" width="37" height="102" transform="translate(1113 453)" fill="#323341"/>
      <rect id="Retângulo_95-2" data-name="Retângulo 95" width="32" height="47" transform="translate(1115 508)" fill="#5003e2"/>
      <rect id="Retângulo_93-3" data-name="Retângulo 93" width="37" height="102" transform="translate(1211 327)" fill="#323341"/>
      <rect id="Retângulo_95-3" data-name="Retângulo 95" width="32" height="32" transform="translate(1213 375)" fill="#5003e2"/>
      <rect id="Retângulo_93-4" data-name="Retângulo 93" width="37" height="102" transform="translate(1211 453)" fill="#323341"/>
      <rect id="Retângulo_95-4" data-name="Retângulo 95" width="32" height="33" transform="translate(1213 522)" fill="#5003e2"/>
      <rect id="Retângulo_93-5" data-name="Retângulo 93" width="37" height="102" transform="translate(1309 327)" fill="#323341"/>
      <rect id="Retângulo_95-5" data-name="Retângulo 95" width="32" height="83" transform="translate(1311 346)" fill="#03ace2"/>
      <rect id="Retângulo_93-6" data-name="Retângulo 93" width="37" height="102" transform="translate(1309 453)" fill="#323341"/>
      <rect id="Retângulo_95-6" data-name="Retângulo 95" width="32" height="38" transform="translate(1311 517)" fill="#5003e2"/>
      <g id="Grupo_123" data-name="Grupo 123" transform="translate(1153 327)">
        <rect id="Retângulo_94" data-name="Retângulo 94" width="36" height="102" transform="translate(0 0)" fill="#323341"/>
        <rect id="Retângulo_96" data-name="Retângulo 96" width="33" height="94" transform="translate(2 8)" fill="#03ace2"/>
      </g>
      <g id="Grupo_133" data-name="Grupo 133" transform="translate(1153 453.058)">
        <rect id="Retângulo_94-2" data-name="Retângulo 94" width="36" height="102" transform="translate(0 -0.058)" fill="#323341"/>
        <rect id="Retângulo_96-2" data-name="Retângulo 96" width="33" height="87" transform="translate(2 14.942)" fill="#03ace2"/>
      </g>
      <g id="Grupo_125" data-name="Grupo 125" transform="translate(1251 327)">
        <rect id="Retângulo_94-3" data-name="Retângulo 94" width="36" height="102" transform="translate(0 0)" fill="#323341"/>
        <rect id="Retângulo_96-3" data-name="Retângulo 96" width="33" height="65" transform="translate(2 37)" fill="#03ace2"/>
      </g>
      <g id="Grupo_131" data-name="Grupo 131" transform="translate(1251 453.058)">
        <rect id="Retângulo_94-4" data-name="Retângulo 94" width="36" height="102" transform="translate(0 -0.058)" fill="#323341"/>
        <rect id="Retângulo_96-4" data-name="Retângulo 96" width="33" height="95" transform="translate(2 6.942)" fill="#03ace2"/>
      </g>
      <g id="Grupo_127" data-name="Grupo 127" transform="translate(1349 327)">
        <rect id="Retângulo_94-5" data-name="Retângulo 94" width="36" height="102" transform="translate(0 0)" fill="#323341"/>
        <rect id="Retângulo_96-5" data-name="Retângulo 96" width="33" height="43" transform="translate(2 59)" fill="#5003e2"/>
      </g>
      <g id="Grupo_129" data-name="Grupo 129" transform="translate(1349 453.058)">
        <rect id="Retângulo_94-6" data-name="Retângulo 94" width="36" height="102" transform="translate(0 -0.058)" fill="#323341"/>
        <rect id="Retângulo_96-6" data-name="Retângulo 96" width="33" height="87" transform="translate(2 14.942)" fill="#03ace2"/>
      </g>
    </g>
    <g id="Grupo_155" data-name="Grupo 155" transform="translate(0 417)">
      <text id="Redes_Sociais_3_" data-name="Redes Sociais (#3)" transform="translate(480 1057)" fill="#fff" font-size="18" font-family="OpenSans-Bold, Open Sans" font-weight="700"><tspan x="0" y="0">Redes Sociais (#3)</tspan></text>
      <g id="Grupo_151" data-name="Grupo 151">
        <circle id="Elipse_42" data-name="Elipse 42" cx="9.5" cy="9.5" r="9.5" transform="translate(479 1082)" fill="#7d2cff"/>
        <circle id="Elipse_43" data-name="Elipse 43" cx="9.5" cy="9.5" r="9.5" transform="translate(479 1107)" fill="#7d2cff"/>
        <circle id="Elipse_44" data-name="Elipse 44" cx="9.5" cy="9.5" r="9.5" transform="translate(479 1159)" fill="#0027ff"/>
        <circle id="Elipse_45" data-name="Elipse 45" cx="9.5" cy="9.5" r="9.5" transform="translate(479 1133)" fill="#7d2cfb"/>
        <text id="_23Mi_interações_nas_redes" data-name="23Mi interações nas redes" transform="translate(595 1097)" fill="#fff" font-size="14" font-family="OpenSans, Open Sans"><tspan x="-85.183" y="0">23Mi interações nas redes</tspan></text>
        <text id="_232_de_engajamento" data-name="+ 232% de engajamento" transform="translate(588 1148)" fill="#fff" font-size="14" font-family="OpenSans, Open Sans"><tspan x="-78.494" y="0">+ 232% de engajamento</tspan></text>
        <text id="_54.323_seguidores" data-name="+ 54.323 seguidores" transform="translate(510 1122)" fill="#fff" font-size="14" font-family="OpenSans, Open Sans"><tspan x="0" y="0">+ 54.323 seguidores</tspan></text>
        <text id="_24.323_seguidores" data-name="+ 24.323 seguidores" transform="translate(510 1174)" fill="#fff" font-size="14" font-family="OpenSans, Open Sans"><tspan x="0" y="0">+ 24.323 seguidores</tspan></text>
      </g>
    </g>
    <g id="Grupo_169" data-name="Grupo 169" transform="translate(0 589)">
      <text id="Redes_Sociais_3_2" data-name="Redes Sociais (#3)" transform="translate(480 1057)" fill="#fff" font-size="18" font-family="OpenSans-Bold, Open Sans" font-weight="700"><tspan x="0" y="0">Redes Sociais (#3)</tspan></text>
      <g id="Grupo_151-2" data-name="Grupo 151">
        <circle id="Elipse_42-2" data-name="Elipse 42" cx="9.5" cy="9.5" r="9.5" transform="translate(479 1082)" fill="#7d2cff"/>
        <circle id="Elipse_43-2" data-name="Elipse 43" cx="9.5" cy="9.5" r="9.5" transform="translate(479 1107)" fill="#7d2cff"/>
        <circle id="Elipse_44-2" data-name="Elipse 44" cx="9.5" cy="9.5" r="9.5" transform="translate(479 1159)" fill="#0027ff"/>
        <circle id="Elipse_45-2" data-name="Elipse 45" cx="9.5" cy="9.5" r="9.5" transform="translate(479 1133)" fill="#7d2cfb"/>
        <text id="_23Mi_interações_nas_redes-2" data-name="23Mi interações nas redes" transform="translate(595 1097)" fill="#fff" font-size="14" font-family="OpenSans, Open Sans"><tspan x="-85.183" y="0">23Mi interações nas redes</tspan></text>
        <text id="_232_de_engajamento-2" data-name="+ 232% de engajamento" transform="translate(588 1148)" fill="#fff" font-size="14" font-family="OpenSans, Open Sans"><tspan x="-78.494" y="0">+ 232% de engajamento</tspan></text>
        <text id="_54.323_seguidores-2" data-name="+ 54.323 seguidores" transform="translate(510 1122)" fill="#fff" font-size="14" font-family="OpenSans, Open Sans"><tspan x="0" y="0">+ 54.323 seguidores</tspan></text>
        <text id="_24.323_seguidores-2" data-name="+ 24.323 seguidores" transform="translate(510 1174)" fill="#fff" font-size="14" font-family="OpenSans, Open Sans"><tspan x="0" y="0">+ 24.323 seguidores</tspan></text>
      </g>
    </g>
    <g id="Grupo_156" data-name="Grupo 156" transform="translate(0 417)">
      <text id="Reclame_Aqui_1_" data-name="Reclame Aqui (#1)" transform="translate(721 1057)" fill="#fff" font-size="18" font-family="OpenSans-Bold, Open Sans" font-weight="700"><tspan x="0" y="0">Reclame Aqui (#1)</tspan></text>
      <g id="Grupo_154" data-name="Grupo 154" transform="translate(-3)">
        <circle id="Elipse_42-3" data-name="Elipse 42" cx="9.5" cy="9.5" r="9.5" transform="translate(721 1082)" fill="#7d2cff"/>
        <circle id="Elipse_43-3" data-name="Elipse 43" cx="9.5" cy="9.5" r="9.5" transform="translate(721 1107)" fill="#7d2cff"/>
        <circle id="Elipse_44-3" data-name="Elipse 44" cx="9.5" cy="9.5" r="9.5" transform="translate(721 1159)" fill="#0027ff"/>
        <circle id="Elipse_45-3" data-name="Elipse 45" cx="9.5" cy="9.5" r="9.5" transform="translate(721 1133)" fill="#7d2cfb"/>
        <text id="_2MI_de_Visualizações" data-name="2MI de Visualizações" transform="translate(819 1097)" fill="#fff" font-size="14" font-family="OpenSans, Open Sans"><tspan x="-67.129" y="0">2MI de Visualizações</tspan></text>
        <text id="_232_de_engajamento-3" data-name="+ 232% de engajamento" transform="translate(830 1148)" fill="#fff" font-size="14" font-family="OpenSans, Open Sans"><tspan x="-78.494" y="0">+ 232% de engajamento</tspan></text>
        <text id="_54.323_seguidores-3" data-name="+ 54.323 seguidores" transform="translate(752 1122)" fill="#fff" font-size="14" font-family="OpenSans, Open Sans"><tspan x="0" y="0">+ 54.323 seguidores</tspan></text>
        <text id="_24.323_seguidores-3" data-name="+ 24.323 seguidores" transform="translate(752 1174)" fill="#fff" font-size="14" font-family="OpenSans, Open Sans"><tspan x="0" y="0">+ 24.323 seguidores</tspan></text>
      </g>
    </g>
    <g id="Grupo_168" data-name="Grupo 168" transform="translate(0 589)">
      <text id="Reclame_Aqui_1_2" data-name="Reclame Aqui (#1)" transform="translate(721 1057)" fill="#fff" font-size="18" font-family="OpenSans-Bold, Open Sans" font-weight="700"><tspan x="0" y="0">Reclame Aqui (#1)</tspan></text>
      <g id="Grupo_154-2" data-name="Grupo 154" transform="translate(-3)">
        <circle id="Elipse_42-4" data-name="Elipse 42" cx="9.5" cy="9.5" r="9.5" transform="translate(721 1082)" fill="#7d2cff"/>
        <circle id="Elipse_43-4" data-name="Elipse 43" cx="9.5" cy="9.5" r="9.5" transform="translate(721 1107)" fill="#7d2cff"/>
        <circle id="Elipse_44-4" data-name="Elipse 44" cx="9.5" cy="9.5" r="9.5" transform="translate(721 1159)" fill="#0027ff"/>
        <circle id="Elipse_45-4" data-name="Elipse 45" cx="9.5" cy="9.5" r="9.5" transform="translate(721 1133)" fill="#7d2cfb"/>
        <text id="_2MI_de_Visualizações-2" data-name="2MI de Visualizações" transform="translate(819 1097)" fill="#fff" font-size="14" font-family="OpenSans, Open Sans"><tspan x="-67.129" y="0">2MI de Visualizações</tspan></text>
        <text id="_232_de_engajamento-4" data-name="+ 232% de engajamento" transform="translate(830 1148)" fill="#fff" font-size="14" font-family="OpenSans, Open Sans"><tspan x="-78.494" y="0">+ 232% de engajamento</tspan></text>
        <text id="_54.323_seguidores-4" data-name="+ 54.323 seguidores" transform="translate(752 1122)" fill="#fff" font-size="14" font-family="OpenSans, Open Sans"><tspan x="0" y="0">+ 54.323 seguidores</tspan></text>
        <text id="_24.323_seguidores-4" data-name="+ 24.323 seguidores" transform="translate(752 1174)" fill="#fff" font-size="14" font-family="OpenSans, Open Sans"><tspan x="0" y="0">+ 24.323 seguidores</tspan></text>
      </g>
    </g>
    <g id="Grupo_157" data-name="Grupo 157" transform="translate(0 417)">
      <text id="Ebit_1_" data-name="Ebit (#1)" transform="translate(941 1057)" fill="#fff" font-size="18" font-family="OpenSans-Bold, Open Sans" font-weight="700"><tspan x="0" y="0">Ebit (#1)</tspan></text>
      <g id="Grupo_152" data-name="Grupo 152" transform="translate(14)">
        <circle id="Elipse_46" data-name="Elipse 46" cx="9.5" cy="9.5" r="9.5" transform="translate(924 1082)" fill="#7d2cff"/>
        <circle id="Elipse_47" data-name="Elipse 47" cx="9.5" cy="9.5" r="9.5" transform="translate(924 1107)" fill="#7d2cff"/>
        <circle id="Elipse_48" data-name="Elipse 48" cx="9.5" cy="9.5" r="9.5" transform="translate(924 1159)" fill="#0027ff"/>
        <circle id="Elipse_49" data-name="Elipse 49" cx="9.5" cy="9.5" r="9.5" transform="translate(924 1133)" fill="#7d2cfb"/>
        <text id="_2MI_de_Visualizações-3" data-name="2MI de Visualizações" transform="translate(1022 1097)" fill="#fff" font-size="14" font-family="OpenSans, Open Sans"><tspan x="-67.129" y="0">2MI de Visualizações</tspan></text>
        <text id="_232_de_engajamento-5" data-name="+ 232% de engajamento" transform="translate(1033 1148)" fill="#fff" font-size="14" font-family="OpenSans, Open Sans"><tspan x="-78.494" y="0">+ 232% de engajamento</tspan></text>
        <text id="_54.323_seguidores-5" data-name="+ 54.323 seguidores" transform="translate(955 1122)" fill="#fff" font-size="14" font-family="OpenSans, Open Sans"><tspan x="0" y="0">+ 54.323 seguidores</tspan></text>
        <text id="_24.323_seguidores-5" data-name="+ 24.323 seguidores" transform="translate(955 1174)" fill="#fff" font-size="14" font-family="OpenSans, Open Sans"><tspan x="0" y="0">+ 24.323 seguidores</tspan></text>
      </g>
    </g>
    <g id="Grupo_167" data-name="Grupo 167" transform="translate(0 589)">
      <text id="Ebit_1_2" data-name="Ebit (#1)" transform="translate(941 1057)" fill="#fff" font-size="18" font-family="OpenSans-Bold, Open Sans" font-weight="700"><tspan x="0" y="0">Ebit (#1)</tspan></text>
      <g id="Grupo_152-2" data-name="Grupo 152" transform="translate(14)">
        <circle id="Elipse_46-2" data-name="Elipse 46" cx="9.5" cy="9.5" r="9.5" transform="translate(924 1082)" fill="#7d2cff"/>
        <circle id="Elipse_47-2" data-name="Elipse 47" cx="9.5" cy="9.5" r="9.5" transform="translate(924 1107)" fill="#7d2cff"/>
        <circle id="Elipse_48-2" data-name="Elipse 48" cx="9.5" cy="9.5" r="9.5" transform="translate(924 1159)" fill="#0027ff"/>
        <circle id="Elipse_49-2" data-name="Elipse 49" cx="9.5" cy="9.5" r="9.5" transform="translate(924 1133)" fill="#7d2cfb"/>
        <text id="_2MI_de_Visualizações-4" data-name="2MI de Visualizações" transform="translate(1022 1097)" fill="#fff" font-size="14" font-family="OpenSans, Open Sans"><tspan x="-67.129" y="0">2MI de Visualizações</tspan></text>
        <text id="_232_de_engajamento-6" data-name="+ 232% de engajamento" transform="translate(1033 1148)" fill="#fff" font-size="14" font-family="OpenSans, Open Sans"><tspan x="-78.494" y="0">+ 232% de engajamento</tspan></text>
        <text id="_54.323_seguidores-6" data-name="+ 54.323 seguidores" transform="translate(955 1122)" fill="#fff" font-size="14" font-family="OpenSans, Open Sans"><tspan x="0" y="0">+ 54.323 seguidores</tspan></text>
        <text id="_24.323_seguidores-6" data-name="+ 24.323 seguidores" transform="translate(955 1174)" fill="#fff" font-size="14" font-family="OpenSans, Open Sans"><tspan x="0" y="0">+ 24.323 seguidores</tspan></text>
      </g>
    </g>
    <g id="Grupo_158" data-name="Grupo 158" transform="translate(0 417)">
      <text id="Consumidor.gov_2_" data-name="Consumidor.gov (#2)" transform="translate(1164 1057)" fill="#fff" font-size="18" font-family="OpenSans-Bold, Open Sans" font-weight="700"><tspan x="0" y="0">Consumidor.gov (#2)</tspan></text>
      <g id="Grupo_153" data-name="Grupo 153" transform="translate(14)">
        <circle id="Elipse_50" data-name="Elipse 50" cx="9.5" cy="9.5" r="9.5" transform="translate(1150 1082)" fill="#7d2cff"/>
        <circle id="Elipse_51" data-name="Elipse 51" cx="9.5" cy="9.5" r="9.5" transform="translate(1150 1107)" fill="#7d2cff"/>
        <circle id="Elipse_52" data-name="Elipse 52" cx="9.5" cy="9.5" r="9.5" transform="translate(1150 1159)" fill="#0027ff"/>
        <circle id="Elipse_53" data-name="Elipse 53" cx="9.5" cy="9.5" r="9.5" transform="translate(1150 1133)" fill="#7d2cfb"/>
        <text id="_2MI_de_Visualizações-5" data-name="2MI de Visualizações" transform="translate(1248 1097)" fill="#fff" font-size="14" font-family="OpenSans, Open Sans"><tspan x="-67.129" y="0">2MI de Visualizações</tspan></text>
        <text id="_232_de_engajamento-7" data-name="+ 232% de engajamento" transform="translate(1259 1148)" fill="#fff" font-size="14" font-family="OpenSans, Open Sans"><tspan x="-78.494" y="0">+ 232% de engajamento</tspan></text>
        <text id="_54.323_seguidores-7" data-name="+ 54.323 seguidores" transform="translate(1181 1122)" fill="#fff" font-size="14" font-family="OpenSans, Open Sans"><tspan x="0" y="0">+ 54.323 seguidores</tspan></text>
        <text id="_24.323_seguidores-7" data-name="+ 24.323 seguidores" transform="translate(1181 1174)" fill="#fff" font-size="14" font-family="OpenSans, Open Sans"><tspan x="0" y="0">+ 24.323 seguidores</tspan></text>
      </g>
    </g>
    <g id="Grupo_166" data-name="Grupo 166" transform="translate(0 589)">
      <text id="Consumidor.gov_2_2" data-name="Consumidor.gov (#2)" transform="translate(1164 1057)" fill="#fff" font-size="18" font-family="OpenSans-Bold, Open Sans" font-weight="700"><tspan x="0" y="0">Consumidor.gov (#2)</tspan></text>
      <g id="Grupo_153-2" data-name="Grupo 153" transform="translate(14)">
        <circle id="Elipse_50-2" data-name="Elipse 50" cx="9.5" cy="9.5" r="9.5" transform="translate(1150 1082)" fill="#7d2cff"/>
        <circle id="Elipse_51-2" data-name="Elipse 51" cx="9.5" cy="9.5" r="9.5" transform="translate(1150 1107)" fill="#7d2cff"/>
        <circle id="Elipse_52-2" data-name="Elipse 52" cx="9.5" cy="9.5" r="9.5" transform="translate(1150 1159)" fill="#0027ff"/>
        <circle id="Elipse_53-2" data-name="Elipse 53" cx="9.5" cy="9.5" r="9.5" transform="translate(1150 1133)" fill="#7d2cfb"/>
        <text id="_2MI_de_Visualizações-6" data-name="2MI de Visualizações" transform="translate(1248 1097)" fill="#fff" font-size="14" font-family="OpenSans, Open Sans"><tspan x="-67.129" y="0">2MI de Visualizações</tspan></text>
        <text id="_232_de_engajamento-8" data-name="+ 232% de engajamento" transform="translate(1259 1148)" fill="#fff" font-size="14" font-family="OpenSans, Open Sans"><tspan x="-78.494" y="0">+ 232% de engajamento</tspan></text>
        <text id="_54.323_seguidores-8" data-name="+ 54.323 seguidores" transform="translate(1181 1122)" fill="#fff" font-size="14" font-family="OpenSans, Open Sans"><tspan x="0" y="0">+ 54.323 seguidores</tspan></text>
        <text id="_24.323_seguidores-8" data-name="+ 24.323 seguidores" transform="translate(1181 1174)" fill="#fff" font-size="14" font-family="OpenSans, Open Sans"><tspan x="0" y="0">+ 24.323 seguidores</tspan></text>
      </g>
    </g>
  </g>
</svg>
