<svg xmlns="http://www.w3.org/2000/svg" width="27.81" height="27.821" viewBox="0 0 27.81 27.821"><g transform="translate(7.519 7.313)"><path d="M155.691,145.1a6.391,6.391,0,1,0,6.391,6.391A6.4,6.4,0,0,0,155.691,145.1Zm0,11.806a5.386,5.386,0,0,1-2.921-.866,2.944,2.944,0,0,1,5.842,0A5.386,5.386,0,0,1,155.691,156.906Zm-1.476-5.9a1.476,1.476,0,1,1,1.476,1.476A1.481,1.481,0,0,1,154.215,151Zm5.263,4.348a3.957,3.957,0,0,0-2.159-2.518,2.458,2.458,0,1,0-3.244,0,3.94,3.94,0,0,0-2.159,2.518,5.408,5.408,0,1,1,9.2-3.86A5.453,5.453,0,0,1,159.477,155.351Z" transform="translate(-149.3 -145.1)" fill="#fff"/></g><g transform="translate(11.941 20.936)"><path d="M224.264,398.118V395.1h-.988v3.018a1.97,1.97,0,1,0,.988,0ZM223.77,401a.982.982,0,1,1,.982-.982A.981.981,0,0,1,223.77,401Z" transform="translate(-221.8 -395.1)" fill="#fff"/></g><g transform="translate(0 0)"><path d="M26.152,11.939a1.757,1.757,0,0,0-1.7,1.3h-2.5a7.712,7.712,0,0,0-1.917-4.874l1.676-1.648a1.768,1.768,0,0,0,2.141-.258,1.708,1.708,0,0,0,.515-1.228,1.731,1.731,0,0,0-.515-1.228,1.828,1.828,0,0,0-2.5,0,1.695,1.695,0,0,0-.263,2.106L19.421,7.749a7.971,7.971,0,0,0-4.967-2.079V3.414a1.738,1.738,0,0,0,1.325-1.675,1.769,1.769,0,0,0-3.538,0,1.738,1.738,0,0,0,1.325,1.675V5.671A7.984,7.984,0,0,0,8.6,7.749L6.935,6.112a1.706,1.706,0,0,0,.252-.878,1.731,1.731,0,0,0-.515-1.228,1.828,1.828,0,0,0-2.5,0A1.708,1.708,0,0,0,3.66,5.234a1.731,1.731,0,0,0,.515,1.228,1.768,1.768,0,0,0,2.141.258L7.992,8.369a7.682,7.682,0,0,0-1.917,4.874h-2.5a1.74,1.74,0,1,0,0,.872H6.1a7.727,7.727,0,0,0,2.1,4.664L6.316,20.631a1.768,1.768,0,0,0-2.141.258,1.708,1.708,0,0,0-.515,1.228,1.731,1.731,0,0,0,.515,1.228,1.767,1.767,0,0,0,1.249.506,1.79,1.79,0,0,0,1.249-.506,1.695,1.695,0,0,0,.263-2.106L8.83,19.376a8.013,8.013,0,0,0,10.351,0l1.895,1.863a1.706,1.706,0,0,0-.252.878,1.731,1.731,0,0,0,.515,1.228,1.767,1.767,0,0,0,1.249.506,1.79,1.79,0,0,0,1.249-.506,1.708,1.708,0,0,0,.515-1.228,1.731,1.731,0,0,0-.515-1.228,1.768,1.768,0,0,0-2.141-.258L19.81,18.778a7.693,7.693,0,0,0,2.1-4.664h2.525a1.761,1.761,0,1,0,1.714-2.176ZM21.973,4.621a.9.9,0,0,1,1.249,0,.861.861,0,0,1,0,1.228.914.914,0,0,1-1.249,0,.861.861,0,0,1-.257-.614A.839.839,0,0,1,21.973,4.621ZM6.048,5.848a.914.914,0,0,1-1.249,0,.861.861,0,0,1,0-1.228.9.9,0,0,1,1.249,0,.861.861,0,0,1,0,1.228Zm-4.179,8.7a.867.867,0,1,1,.882-.867A.874.874,0,0,1,1.869,14.546Zm4.179,8.191a.914.914,0,0,1-1.249,0,.861.861,0,0,1,0-1.228.9.9,0,0,1,1.249,0,.861.861,0,0,1,.257.614A.839.839,0,0,1,6.048,22.736Zm15.926-1.228a.89.89,0,0,1,.624-.253.865.865,0,0,1,.624,1.481.914.914,0,0,1-1.249,0,.861.861,0,0,1,0-1.228ZM13.129,1.739a.882.882,0,1,1,.882.867A.874.874,0,0,1,13.129,1.739ZM14.01,20.41a7.017,7.017,0,0,1-7.065-6.947,7.066,7.066,0,0,1,14.13,0A7.017,7.017,0,0,1,14.01,20.41Zm12.142-5.865a.867.867,0,1,1,.882-.867A.874.874,0,0,1,26.152,14.546Z" transform="translate(-0.1 0)" fill="#fff"/></g></svg>