<svg xmlns="http://www.w3.org/2000/svg" width="28.281" height="26.969" viewBox="0 0 28.281 26.969">
  <g id="_009-star-1" data-name="009-star-1" transform="translate(-4.039 -11.356)">
    <path id="Caminho_448" data-name="Caminho 448" d="M77.161,25.434,68,24.585l-3.639-8.449a.734.734,0,0,0-1.348,0l-3.639,8.449-9.16.85a.734.734,0,0,0-.417,1.282l6.911,6.072-2.023,8.974a.734.734,0,0,0,1.091.793l7.91-4.7,7.91,4.7a.734.734,0,0,0,1.091-.793l-2.023-8.974,6.911-6.072A.734.734,0,0,0,77.161,25.434Z" transform="translate(-45.509 -4.335)" fill="#ffdc64"/>
    <path id="Caminho_454" data-name="Caminho 454" d="M65.685,19.208l-1.323-3.073a.734.734,0,0,0-1.348,0l-3.639,8.449-9.16.85a.734.734,0,0,0-.417,1.282l6.911,6.072-2.023,8.974a.734.734,0,0,0,1.091.793l1.053-.625A56.986,56.986,0,0,1,65.685,19.208Z" transform="translate(-45.509 -4.335)" fill="#ffc850"/>
  </g>
</svg>
