<svg id="_005-youtube" data-name="005-youtube" xmlns="http://www.w3.org/2000/svg" width="28" height="28" viewBox="0 0 28 28">
  <path id="Caminho_439" data-name="Caminho 439" d="M14,0A14,14,0,1,1,0,14,14,14,0,0,1,14,0Z" fill="#c4302b"/>
  <path id="Caminho_440" data-name="Caminho 440" d="M71.288,60.789a1.648,1.648,0,0,0,1.043-.341,1,1,0,0,0,.378-.827V57.5a.932.932,0,0,0-.385-.769,1.578,1.578,0,0,0-.992-.3,1.778,1.778,0,0,0-1.057.282.889.889,0,0,0-.394.76V59.6a1.017,1.017,0,0,0,.383.834A1.594,1.594,0,0,0,71.288,60.789Zm-.463-3.212a.227.227,0,0,1,.125-.2.631.631,0,0,1,.326-.074.713.713,0,0,1,.351.074.224.224,0,0,1,.133.2V59.6a.267.267,0,0,1-.131.235.646.646,0,0,1-.353.085.562.562,0,0,1-.334-.084.274.274,0,0,1-.116-.236Zm3.392,3.209a1.092,1.092,0,0,0,.479-.178,1.791,1.791,0,0,0,.477-.4v.472H76V56.426h-.827v3.231a1.172,1.172,0,0,1-.255.228.469.469,0,0,1-.231.09.193.193,0,0,1-.168-.068.354.354,0,0,1-.054-.217V56.427H73.64v3.557a.938.938,0,0,0,.145.57A.543.543,0,0,0,74.217,60.787Zm2.4,1.76H66.629a2.822,2.822,0,0,0-2.876,2.763v2.336a2.822,2.822,0,0,0,2.876,2.764h9.992A2.822,2.822,0,0,0,79.5,67.646V65.31A2.822,2.822,0,0,0,76.622,62.547Zm-8.506,2.371h-.884v3.659h-.855V64.918h-.884v-.624h2.622S68.116,64.918,68.116,64.918Zm2.637,3.71h-.921v-.38a1.967,1.967,0,0,1-.533.319,1.4,1.4,0,0,1-.535.111.668.668,0,0,1-.481-.156.612.612,0,0,1-.162-.462V65.172h.921v2.65A.24.24,0,0,0,69.1,68a.272.272,0,0,0,.19.054.635.635,0,0,0,.257-.073,1.181,1.181,0,0,0,.286-.185V65.171h.921S70.753,68.628,70.753,68.628Zm3.488-.658a.646.646,0,0,1-.214.521.925.925,0,0,1-.618.181,1.5,1.5,0,0,1-.477-.069,1.2,1.2,0,0,1-.389-.217v.245h-.92V64.294h.92v1.4a1.5,1.5,0,0,1,.39-.222,1.2,1.2,0,0,1,.42-.076.957.957,0,0,1,.659.2.761.761,0,0,1,.229.6Zm3.505-.976h-1.7v.625a.567.567,0,0,0,.087.363.385.385,0,0,0,.3.1.441.441,0,0,0,.31-.086.561.561,0,0,0,.089-.379v-.151h.913v.17a.9.9,0,0,1-.335.767,1.617,1.617,0,0,1-1,.257,1.469,1.469,0,0,1-.94-.273.908.908,0,0,1-.343-.751V66.149a.833.833,0,0,1,.378-.7,1.623,1.623,0,0,1,.971-.27,1.518,1.518,0,0,1,.937.251.856.856,0,0,1,.326.722S77.746,66.994,77.746,66.994ZM67.621,60.8h1.044V58.255l1.215-3.587H68.818l-.646,2.452h-.067l-.677-2.452H66.376l1.244,3.7S67.621,60.8,67.621,60.8Zm5.3,5.1-.193.032-.188.1v1.993a.8.8,0,0,0,.216.113l.22.034a.364.364,0,0,0,.246-.068.276.276,0,0,0,.079-.219V66.229a.3.3,0,0,0-.1-.246A.432.432,0,0,0,72.923,65.9Z" transform="translate(-57.625 -49.414)" fill="#fff"/>
  <path id="Caminho_441" data-name="Caminho 441" d="M192.5,170.021a.421.421,0,0,0-.3.091.4.4,0,0,0-.091.3v.334h.785v-.334a.334.334,0,0,0-.389-.388Z" transform="translate(-173.643 -153.68)" fill="#fff"/>
</svg>
